Hanif_Medium_2_5_grf.mot
version=1
nRows=31
nColumns=19
inDegrees=yes
endheader
time	right_ground_force_vx	right_ground_force_vy	right_ground_force_vz	right_ground_force_px	right_ground_force_py	right_ground_force_pz	right_ground_torque_x	right_ground_torque_y	right_ground_torque_z	left_ground_force_vx	left_ground_force_vy	left_ground_force_vz	left_ground_force_px	left_ground_force_py	left_ground_force_pz	left_ground_torque_x	left_ground_torque_y	left_ground_torque_z
3.665000	11.299400	383.243000	42.758000	0.208659	0.000000	-1.450930	-20.932300	6.093050	3.970320	-4.496210	371.879000	-43.029000	0.224538	0.000000	-0.974341	26.587300	-3.349660	9.671920
3.670000	11.610600	383.866000	43.349000	0.208981	0.000000	-1.450250	-21.226100	5.964860	4.091850	-4.180100	373.079000	-44.023000	0.224978	0.000000	-0.974816	26.845600	-3.281310	9.871050
3.675000	11.063100	384.246000	44.271300	0.209167	0.000000	-1.449570	-21.515300	6.010900	4.189890	-4.318560	374.172000	-44.775400	0.225023	0.000000	-0.974905	26.958400	-3.225970	9.920010
3.680000	11.582500	386.352000	44.903500	0.209730	0.000000	-1.450010	-21.458700	5.958110	4.427050	-4.326340	376.000000	-45.009300	0.225423	0.000000	-0.975066	27.150500	-3.212740	10.117900
3.685000	11.292800	385.995000	46.154400	0.209463	0.000000	-1.450110	-21.407100	5.901200	4.334980	-4.776390	377.002000	-45.051100	0.226003	0.000000	-0.974455	26.998000	-3.175930	10.363600
3.690000	11.270200	385.515000	46.271200	0.209851	0.000000	-1.449690	-21.546000	5.762540	4.467790	-5.085330	375.720000	-46.428600	0.225670	0.000000	-0.974936	27.090700	-3.096470	10.219900
3.695000	11.321700	384.651000	46.811300	0.210426	0.000000	-1.449280	-21.653000	5.689120	4.683870	-4.932120	375.331000	-47.518600	0.225791	0.000000	-0.974993	27.083500	-3.147720	10.278900
3.700000	11.265300	382.807000	47.390000	0.210861	0.000000	-1.449660	-21.406900	5.529050	4.827470	-5.039140	376.297000	-48.201300	0.226353	0.000000	-0.974921	27.126200	-3.033540	10.514100
3.705000	11.048700	384.115000	47.540200	0.211571	0.000000	-1.449830	-21.423400	5.388700	5.102950	-5.278450	375.282000	-49.429400	0.226351	0.000000	-0.975150	27.142300	-2.989040	10.504500
3.710000	10.649800	380.584000	47.701600	0.211570	0.000000	-1.448140	-21.873700	5.375760	5.069170	-5.834880	375.762000	-49.894100	0.226378	0.000000	-0.975264	27.226800	-2.955980	10.535200
3.715000	10.414600	379.797000	47.845000	0.212014	0.000000	-1.448190	-21.814000	5.247660	5.220640	-6.030840	375.016000	-50.515600	0.226609	0.000000	-0.975157	27.134800	-2.879640	10.606300
3.720000	9.503010	377.625000	48.227700	0.212604	0.000000	-1.448170	-21.709000	5.140380	5.423630	-5.962960	372.062000	-51.358100	0.227014	0.000000	-0.974884	26.819600	-2.806640	10.689100
3.725000	10.207700	373.606000	47.893800	0.213697	0.000000	-1.446600	-22.053200	5.052250	5.771380	-5.903830	372.423000	-51.715500	0.227616	0.000000	-0.974986	26.882900	-2.791920	10.929800
3.730000	9.651900	370.672000	48.489800	0.214424	0.000000	-1.447680	-21.485500	4.971230	6.014890	-6.920610	369.220000	-51.945300	0.228110	0.000000	-0.976014	27.045600	-2.692530	11.034300
3.735000	9.279030	367.979000	48.556600	0.214617	0.000000	-1.447630	-21.351800	4.822830	6.037370	-7.207610	369.364000	-52.387000	0.228313	0.000000	-0.975340	26.810200	-2.626170	11.114800
3.740000	8.692850	365.519000	48.629300	0.215038	0.000000	-1.447160	-21.390000	4.659960	6.145740	-7.709220	365.853000	-51.568900	0.229637	0.000000	-0.975789	26.729100	-2.611980	11.505600
3.745000	7.824550	361.440000	48.332800	0.215174	0.000000	-1.445860	-21.631000	4.678510	6.145280	-7.801620	364.712000	-51.925800	0.229976	0.000000	-0.976061	26.745700	-2.517480	11.593800
3.750000	7.521100	357.993000	48.280200	0.215915	0.000000	-1.446290	-21.273900	4.482260	6.345030	-8.373040	362.291000	-51.785100	0.230163	0.000000	-0.975773	26.471000	-2.421050	11.584200
3.755000	7.575330	355.662000	48.493200	0.216275	0.000000	-1.446500	-21.062500	4.336440	6.425650	-8.637490	359.862000	-51.884900	0.230923	0.000000	-0.976080	26.410200	-2.411170	11.798100
3.760000	6.686800	351.190000	48.111300	0.216282	0.000000	-1.445770	-21.062500	4.300660	6.359230	-8.899280	357.548000	-52.076300	0.231913	0.000000	-0.976187	26.284500	-2.367840	12.092100
3.765000	6.299220	347.010000	48.354600	0.217028	0.000000	-1.445510	-20.906100	4.189540	6.554490	-9.409570	354.741000	-52.029600	0.231989	0.000000	-0.976267	26.116700	-2.389710	12.043400
3.770000	6.154070	344.274000	48.058500	0.216842	0.000000	-1.445530	-20.739300	4.054750	6.425460	-9.464200	349.960000	-51.615100	0.233441	0.000000	-0.977135	26.071900	-2.294490	12.399500
3.775000	5.764080	340.848000	48.244300	0.217692	0.000000	-1.445600	-20.510200	3.961250	6.662500	-10.024900	346.560000	-51.143700	0.233734	0.000000	-0.977105	25.818600	-2.265560	12.389600
3.780000	5.654690	337.921000	48.426800	0.217799	0.000000	-1.444480	-20.713000	3.934110	6.652070	-10.293900	343.716000	-51.524200	0.234138	0.000000	-0.977663	25.807400	-2.298210	12.457300
3.785000	4.668400	336.266000	48.489600	0.218539	0.000000	-1.444370	-20.661200	3.836830	6.875510	-10.228000	341.762000	-51.164100	0.233995	0.000000	-0.977064	25.454400	-2.252960	12.329300
3.790000	4.344740	334.418000	47.613800	0.219757	0.000000	-1.443990	-20.678000	3.777730	7.240490	-10.302700	338.610000	-51.216300	0.234796	0.000000	-0.978274	25.631800	-2.150300	12.494300
3.795000	3.611110	329.468000	47.023400	0.220580	0.000000	-1.443320	-20.600700	3.705370	7.415110	-10.512900	334.458000	-50.936800	0.235190	0.000000	-0.978284	25.327000	-2.113600	12.485000
3.800000	3.330230	326.974000	46.572400	0.221018	0.000000	-1.442490	-20.722800	3.631050	7.498770	-10.816900	329.069000	-50.649200	0.236334	0.000000	-0.978841	25.114500	-2.135940	12.694800
3.805000	2.684070	324.561000	46.456600	0.221848	0.000000	-1.442320	-20.631200	3.542220	7.718770	-10.382400	327.373000	-50.394200	0.236654	0.000000	-0.978465	24.854500	-2.073390	12.723800
3.810000	2.356690	322.101000	46.231500	0.222669	0.000000	-1.441930	-20.604200	3.418380	7.920950	-10.697800	323.944000	-50.707600	0.236760	0.000000	-0.977989	24.448100	-2.052680	12.646700
3.815000	1.871850	318.235000	46.593200	0.223841	0.000000	-1.441020	-20.652400	3.284720	8.212660	-10.772900	320.644000	-50.738700	0.237284	0.000000	-0.978971	24.519400	-2.042460	12.706800
